<svg xmlns="http://www.w3.org/2000/svg" width="1200" height="1200" preserveAspectRatio="xMidYMid meet" version="1.0" viewBox="0 0 900 900"><metadata>Created by potrace 1.14, written by Peter Selinger 2001-2017</metadata><g fill="#000" stroke="none"><path d="M2387 7113 c-4 -3 -7 -982 -7 -2175 l0 -2169 1113 4 c1088 3 1114 3 1202 24 379 88 683 316 859 644 25 47 46 90 46 95 0 11 -81 46 -145 63 -24 7 -163 11 -347 11 l-307 0 -61 -39 c-33 -22 -89 -50 -123 -62 l-62 -24 -732 -3 -733 -3 0 556 0 555 699 0 c390 0 720 -4 747 -9 73 -14 152 -46 212 -86 l54 -35 301 0 c166 0 322 5 347 10 61 14 150 50 150 61 0 16 -61 131 -106 199 -23 36 -71 99 -107 139 l-64 75 77 90 c76 92 125 165 175 265 32 64 31 65 -64 103 -53 22 -72 23 -383 26 l-328 3 -32 -24 c-18 -14 -57 -37 -85 -51 -111 -55 -118 -56 -885 -56 l-708 0 0 555 0 556 728 -3 727 -3 74 -27 c40 -15 97 -42 126 -61 l51 -35 355 -5 c223 -3 377 -9 417 -17 35 -7 65 -10 68 -7 10 10 -86 209 -142 294 -77 117 -243 284 -360 360 -165 108 -356 177 -559 202 -99 12 -2176 16 -2188 4z" transform="translate(0.000000,900.000000) scale(0.100000,-0.100000)"/><path d="M3297 6204 c-4 -4 -7 -193 -7 -421 l0 -413 355 0 355 0 0 65 0 65 698 0 c576 0 709 -3 767 -15 200 -42 361 -195 420 -399 24 -81 17 -248 -13 -331 -63 -172 -224 -313 -399 -350 -55 -12 -200 -15 -770 -15 l-703 0 0 65 0 65 -355 0 -355 0 0 -485 0 -485 355 0 355 0 0 65 0 65 705 0 c469 0 722 -4 757 -11 180 -37 347 -182 410 -354 30 -83 37 -250 13 -331 -43 -149 -157 -290 -285 -352 -124 -61 -134 -62 -902 -62 l-698 0 0 65 0 65 -355 0 -355 0 0 -420 0 -421 1113 4 c995 3 1120 5 1187 20 234 53 452 163 606 308 274 256 414 570 414 925 0 329 -98 594 -313 844 l-64 75 64 75 c210 244 313 517 313 829 0 337 -119 635 -350 875 -186 193 -383 304 -655 369 -89 21 -106 21 -1195 24 -608 2 -1109 1 -1113 -3z" transform="translate(0.000000,900.000000) scale(0.100000,-0.100000)"/></g></svg>